<svg xmlns="http://www.w3.org/2000/svg" width="213.547" height="91.376" viewBox="0 0 213.547 91.376">
  <g id="arrow" transform="translate(0.5 0.485)">
    <path id="Path_17" data-name="Path 17" d="M-5292.036,4299.337s68.2,17.153,67.714,29.379c-.314,8.131-59.367,12.3-92.727,13.314-80.775,2.448-8.7-22.846-14.414-7.615-1.325,3.534-9.474,6.171-20.913,8.61-36.966,7.883-107.9,13.155-76.812,39.49" transform="translate(5436.868 -4299.337)" fill="none" stroke="#012932" stroke-width="1" stroke-dasharray="4 3" opacity="0.25"/>
    <path id="Path_18" data-name="Path 18" d="M6.2.235a.5.5,0,0,1,.61,0L11.835,4.1a.5.5,0,0,1-.3.9H1.47a.5.5,0,0,1-.3-.9Z" transform="matrix(-0.656, 0.755, -0.755, -0.656, 16.519, 81.897)" fill="#012932" opacity="0.25"/>
  </g>
</svg>
