<svg id="insta" xmlns="http://www.w3.org/2000/svg" width="23.292" height="23.292" viewBox="0 0 23.292 23.292">
  <path id="Path_10" data-name="Path 10" d="M125.822,109.468h-9.415a6.946,6.946,0,0,0-6.939,6.939v9.415a6.947,6.947,0,0,0,6.939,6.939h9.415a6.947,6.947,0,0,0,6.939-6.939v-9.415a6.947,6.947,0,0,0-6.939-6.939Zm4.6,16.354a4.6,4.6,0,0,1-4.6,4.6h-9.415a4.6,4.6,0,0,1-4.6-4.6v-9.415a4.6,4.6,0,0,1,4.6-4.6h9.415a4.6,4.6,0,0,1,4.6,4.6Z" transform="translate(-109.468 -109.468)" fill="#012932"/>
  <path id="Path_11" data-name="Path 11" d="M186.223,180.2a6.022,6.022,0,1,0,6.022,6.022,6.023,6.023,0,0,0-6.022-6.022Zm0,9.705a3.681,3.681,0,1,1,3.681-3.681A3.681,3.681,0,0,1,186.223,189.905Z" transform="translate(-174.58 -174.579)" fill="#012932"/>
  <path id="Path_12" data-name="Path 12" d="M316.664,164.055a1.444,1.444,0,1,1-1.444-1.444,1.444,1.444,0,0,1,1.444,1.444Z" transform="translate(-297.539 -158.387)" fill="#012932"/>
</svg>
