<svg xmlns="http://www.w3.org/2000/svg" width="89.067" height="72.085" viewBox="0 0 89.067 72.085">
  <path id="Path_9" data-name="Path 9" d="M70.278-272.622h1.445a14.691,14.691,0,0,1,9.756,3.884,22.41,22.41,0,0,1,6.323,8.22,12.466,12.466,0,0,1,1.265,4.7,7.119,7.119,0,0,1-.632,2.62,9.051,9.051,0,0,1-2.981,3.342,40.786,40.786,0,0,1-8.672,6.5,24.058,24.058,0,0,1-10.117,2.529q-4.878,0-11.382-3.794T46.611-261.24a37.021,37.021,0,0,1-.361-5.239q0-11.021,7.046-25.835.9-1.987,3.342-6.143t4.968-7.859a19.74,19.74,0,0,1,3.613-4.426,5.588,5.588,0,0,1,2.529-.542,11.077,11.077,0,0,1,2.258.361A10.889,10.889,0,0,1,73.44-309.3q1.9,1.265,2.8,1.987,2.168,1.987,2.168,3.794v1.265a9.777,9.777,0,0,1-1.265,3.613l-.723,1.807A71.631,71.631,0,0,0,70.278-272.622ZM24.028-271h1.265a14.864,14.864,0,0,1,10.027,4.065,23.554,23.554,0,0,1,6.414,8.4,13.268,13.268,0,0,1,.9,4.336,7.127,7.127,0,0,1-1.445,4.065,24.7,24.7,0,0,1-5.781,5.149l-.542.542Q27.461-239.2,20.776-239.2q-6.865,0-13.188-5.239A27.145,27.145,0,0,1,0-263.589q0-1.626.632-9.124t6.414-18.157q.723-1.445,3.162-5.6t5.059-8.13q2.62-3.975,3.884-4.7a8.584,8.584,0,0,1,2.349-.361,9.531,9.531,0,0,1,4.246,1.265,19.852,19.852,0,0,1,4.065,2.71q2.168,1.987,2.168,3.794v1.265a11.073,11.073,0,0,1-1.265,3.794,7.061,7.061,0,0,1-.542,1.445q-1.987,5.059-4.065,11.743A42.657,42.657,0,0,0,24.028-271Z" transform="translate(0 311.284)" fill="#111a1c" opacity="0.07"/>
</svg>
