<svg xmlns="http://www.w3.org/2000/svg" width="10.547" height="5.274" viewBox="0 0 10.547 5.274">
  <path id="Path_126" data-name="Path 126" d="M2838.172,1365.956h-8.331a1.006,1.006,0,0,1-.254-.025.415.415,0,0,1-.307-.458.433.433,0,0,1,.394-.388,1.627,1.627,0,0,1,.2-.01h8.306c-.047-.045-.073-.071-.1-.1q-.722-.66-1.446-1.318a.417.417,0,0,1-.156-.454.493.493,0,0,1,.795-.205c.183.157.355.323.533.485l1.831,1.677a.421.421,0,0,1,0,.7c-.776.712-1.556,1.421-2.328,2.136a.5.5,0,0,1-.831-.176.381.381,0,0,1,.115-.415c.129-.123.263-.243.4-.364l1.078-.987C2838.1,1366.03,2838.124,1366,2838.172,1365.956Z" transform="translate(-2829.277 -1362.877)" fill="#eebf79"/>
</svg>
