<svg xmlns="http://www.w3.org/2000/svg" width="14" height="7" viewBox="0 0 10 5">
  <path id="Path_99" data-name="Path 99" d="M2837.71,1365.8h-7.9a.954.954,0,0,1-.241-.024.393.393,0,0,1-.292-.435.41.41,0,0,1,.374-.367,1.555,1.555,0,0,1,.191-.009h7.875c-.044-.042-.069-.067-.095-.091q-.685-.625-1.371-1.25a.4.4,0,0,1-.148-.43.467.467,0,0,1,.753-.195c.173.149.337.306.505.46l1.736,1.59a.4.4,0,0,1,0,.662c-.736.675-1.475,1.347-2.207,2.026a.476.476,0,0,1-.787-.167.361.361,0,0,1,.109-.394c.123-.117.249-.231.375-.345l1.022-.936C2837.64,1365.866,2837.665,1365.841,2837.71,1365.8Z" transform="translate(-2829.277 -1362.876)" fill="#697f85"/>
</svg>
