<svg xmlns="http://www.w3.org/2000/svg" width="22.901" height="19.054" viewBox="0 0 22.901 19.054">
  <path id="Path_7" data-name="Path 7" d="M132.008,136.33a9.053,9.053,0,0,1-1.58.533,4.922,4.922,0,0,0,1.3-2.07.258.258,0,0,0-.378-.3,9.116,9.116,0,0,1-2.415,1,.61.61,0,0,1-.151.019.641.641,0,0,1-.423-.163,4.938,4.938,0,0,0-3.268-1.233,5.278,5.278,0,0,0-1.564.244,4.785,4.785,0,0,0-3.224,3.447,5.269,5.269,0,0,0-.117,1.818.177.177,0,0,1-.045.138.184.184,0,0,1-.137.062h-.017a12.949,12.949,0,0,1-8.9-4.755.258.258,0,0,0-.423.033,4.945,4.945,0,0,0,.8,6,4.428,4.428,0,0,1-1.126-.436.258.258,0,0,0-.383.223,4.945,4.945,0,0,0,2.884,4.558h-.106a4.423,4.423,0,0,1-.832-.081.259.259,0,0,0-.295.332,4.949,4.949,0,0,0,3.906,3.366,9.115,9.115,0,0,1-5.1,1.546h-.57a.378.378,0,0,0-.369.286.391.391,0,0,0,.187.432,13.554,13.554,0,0,0,6.811,1.837,13.737,13.737,0,0,0,5.821-1.235,12.853,12.853,0,0,0,4.259-3.191,13.99,13.99,0,0,0,2.6-4.368,13.8,13.8,0,0,0,.886-4.78v-.076a.841.841,0,0,1,.314-.651,9.766,9.766,0,0,0,1.964-2.155.258.258,0,0,0-.319-.379Z" transform="translate(-109.468 -134.112)" fill="#012932"/>
</svg>
